# xmcd
#
# Track frame offsets:
#	150
#	13475
#	27512
#	41243
#	55242
#	68549
#	81889
#	94907
#	109305
#	122446
#	135483
#	149423
#	158745
#	171169
#	185312
#	197396
#	212865
#	225552
#	239570
#	252425
#	266591
#	279894
#	293638
#	307921
#	321084
#
# Disc length: 4429 seconds
#
# Revision: 1
# Processed by: cddbd v1.5.1PL0 Copyright (c) Steve Scherf et al.
# Submitted via: dBpowerAMP V4.0
#
DISCID=68114b19
DTITLE=Homer - The Iliad
DYEAR=1900
DGENRE=blues
TTITLE0=Book 13 f
TTITLE1=Book 13 g
TTITLE2=Book 13 h
TTITLE3=Book 13 i
TTITLE4=Book 13 j
TTITLE5=Book 13 k
TTITLE6=Book 13 l
TTITLE7=Book 13 m
TTITLE8=Book 13 n
TTITLE9=Book 13 o
TTITLE10=Book 13 p
TTITLE11=Book 13 q
TTITLE12=Book 14 a
TTITLE13=Book 14 b
TTITLE14=Book 14 c
TTITLE15=Book 14 d
TTITLE16=Book 14 e
TTITLE17=Book 14 f
TTITLE18=Book 14 g
TTITLE19=Book 14 h
TTITLE20=Book 14 i
TTITLE21=Book 14 j
TTITLE22=Book 14 k
TTITLE23=Book 15 a
TTITLE24=Book 15 b
EXTD=
EXTT0=
EXTT1=
EXTT2=
EXTT3=
EXTT4=
EXTT5=
EXTT6=
EXTT7=
EXTT8=
EXTT9=
EXTT10=
EXTT11=
EXTT12=
EXTT13=
EXTT14=
EXTT15=
EXTT16=
EXTT17=
EXTT18=
EXTT19=
EXTT20=
EXTT21=
EXTT22=
EXTT23=
EXTT24=
PLAYORDER=
